<mxfile host="app.diagrams.net" modified="2022-01-25T14:58:31.685Z" agent="5.0 (Macintosh; Intel Mac OS X 10_15_7) AppleWebKit/537.36 (KHTML, like Gecko) Chrome/97.0.4692.71 Safari/537.36" etag="taGRCLvvAmDNNhOoOn5A" version="16.4.5" type="github">
  <diagram name="Page-1" id="c7558073-3199-34d8-9f00-42111426c3f3">
    <mxGraphModel dx="834" dy="772" grid="1" gridSize="10" guides="1" tooltips="1" connect="1" arrows="1" fold="1" page="1" pageScale="1" pageWidth="826" pageHeight="1169" background="none" math="0" shadow="0">
      <root>
        <mxCell id="0" />
        <mxCell id="1" parent="0" />
        <mxCell id="DKgWzSn5s0b5Owi-XkWh-98" value="" style="shape=mxgraph.signs.transportation.bicycler;html=1;pointerEvents=1;fillColor=#000000;strokeColor=none;verticalLabelPosition=bottom;verticalAlign=top;align=center;sketch=0;" vertex="1" parent="1">
          <mxGeometry x="510" y="180" width="60" height="68" as="geometry" />
        </mxCell>
        <mxCell id="DKgWzSn5s0b5Owi-XkWh-102" value="" style="group" vertex="1" connectable="0" parent="1">
          <mxGeometry x="10" y="23" width="220" height="174" as="geometry" />
        </mxCell>
        <mxCell id="2" value="&lt;p style=&quot;text-align: center ; margin: 4px 0px 0px ; text-decoration: underline&quot;&gt;Bike&lt;/p&gt;&lt;p style=&quot;margin: 4px 0px 0px&quot;&gt;&lt;/p&gt;&lt;ul&gt;&lt;li&gt;Bike_id&lt;/li&gt;&lt;/ul&gt;&lt;div&gt;&lt;span style=&quot;white-space: pre&quot;&gt;	&lt;/span&gt;Each bike has a unique id&lt;/div&gt;&lt;p&gt;&lt;/p&gt;" style="verticalAlign=middle;align=left;overflow=fill;fontSize=12;fontFamily=Helvetica;html=1;rounded=1;fontStyle=1;strokeWidth=3;fillColor=#E6FFCC;arcSize=23;" parent="DKgWzSn5s0b5Owi-XkWh-102" vertex="1">
          <mxGeometry width="220" height="174" as="geometry" />
        </mxCell>
        <mxCell id="DKgWzSn5s0b5Owi-XkWh-97" value="" style="shape=mxgraph.signs.transportation.bicycle_2;html=1;pointerEvents=1;fillColor=#000000;strokeColor=none;verticalLabelPosition=bottom;verticalAlign=top;align=center;sketch=0;" vertex="1" parent="DKgWzSn5s0b5Owi-XkWh-102">
          <mxGeometry x="102.5" y="97" width="99" height="56" as="geometry" />
        </mxCell>
        <mxCell id="DKgWzSn5s0b5Owi-XkWh-106" value="" style="group" vertex="1" connectable="0" parent="1">
          <mxGeometry x="90" y="280" width="220" height="174" as="geometry" />
        </mxCell>
        <mxCell id="DKgWzSn5s0b5Owi-XkWh-104" value="&lt;p style=&quot;text-align: center ; margin: 4px 0px 0px ; text-decoration: underline&quot;&gt;Bike Station (End)&lt;/p&gt;&lt;p style=&quot;margin: 4px 0px 0px&quot;&gt;&lt;/p&gt;&lt;ul&gt;&lt;li&gt;&lt;span style=&quot;text-align: center&quot;&gt;End&lt;/span&gt;_station&lt;/li&gt;&lt;li&gt;&lt;span style=&quot;text-align: center&quot;&gt;End&lt;/span&gt;_lat&lt;/li&gt;&lt;li&gt;&lt;span style=&quot;text-align: center&quot;&gt;End&lt;/span&gt;_long&lt;/li&gt;&lt;/ul&gt;&lt;div&gt;The location of each bike station is&lt;br&gt;known&lt;br&gt;&lt;br&gt;Note: the start and the end station&lt;br&gt;&lt;span&gt;	&lt;/span&gt;&lt;span style=&quot;white-space: pre&quot;&gt;	&lt;/span&gt;can be the same&lt;br&gt;&lt;/div&gt;&lt;p&gt;&lt;/p&gt;&lt;p&gt;&lt;/p&gt;" style="verticalAlign=middle;align=left;overflow=fill;fontSize=12;fontFamily=Helvetica;html=1;rounded=1;fontStyle=1;strokeWidth=3;fillColor=#dae8fc;arcSize=23;strokeColor=#6c8ebf;" vertex="1" parent="DKgWzSn5s0b5Owi-XkWh-106">
          <mxGeometry width="220" height="174" as="geometry" />
        </mxCell>
        <mxCell id="DKgWzSn5s0b5Owi-XkWh-105" value="" style="shape=mxgraph.signs.travel.point_of_interest;html=1;pointerEvents=1;fillColor=#7EA6E0;strokeColor=none;verticalLabelPosition=bottom;verticalAlign=top;align=center;sketch=0;rotation=90;" vertex="1" parent="DKgWzSn5s0b5Owi-XkWh-106">
          <mxGeometry x="160" y="30" width="40" height="42" as="geometry" />
        </mxCell>
        <mxCell id="DKgWzSn5s0b5Owi-XkWh-107" value="" style="group" vertex="1" connectable="0" parent="1">
          <mxGeometry x="280" y="23" width="220" height="174" as="geometry" />
        </mxCell>
        <mxCell id="DKgWzSn5s0b5Owi-XkWh-100" value="&lt;p style=&quot;text-align: center ; margin: 4px 0px 0px ; text-decoration: underline&quot;&gt;Bike Station (Start)&lt;/p&gt;&lt;p style=&quot;margin: 4px 0px 0px&quot;&gt;&lt;/p&gt;&lt;ul&gt;&lt;li&gt;Start_station&lt;/li&gt;&lt;li&gt;Start_lat&lt;/li&gt;&lt;li&gt;Start_long&lt;/li&gt;&lt;/ul&gt;&lt;div&gt;The location of each bike station is&lt;br&gt;known&lt;br&gt;&lt;br&gt;Note: the start and the end station&lt;br&gt;&lt;span style=&quot;white-space: pre&quot;&gt;	&lt;/span&gt;can be the same&lt;br&gt;&lt;/div&gt;&lt;p&gt;&lt;/p&gt;&lt;p&gt;&lt;/p&gt;" style="verticalAlign=middle;align=left;overflow=fill;fontSize=12;fontFamily=Helvetica;html=1;rounded=1;fontStyle=1;strokeWidth=3;fillColor=#e1d5e7;arcSize=23;strokeColor=#9673a6;" vertex="1" parent="DKgWzSn5s0b5Owi-XkWh-107">
          <mxGeometry width="220" height="174" as="geometry" />
        </mxCell>
        <mxCell id="DKgWzSn5s0b5Owi-XkWh-99" value="" style="shape=mxgraph.signs.travel.point_of_interest;html=1;pointerEvents=1;fillColor=#A680B8;strokeColor=none;verticalLabelPosition=bottom;verticalAlign=top;align=center;sketch=0;" vertex="1" parent="DKgWzSn5s0b5Owi-XkWh-107">
          <mxGeometry x="160" y="27" width="37" height="46" as="geometry" />
        </mxCell>
        <mxCell id="DKgWzSn5s0b5Owi-XkWh-109" value="&lt;p style=&quot;text-align: center ; margin: 4px 0px 0px ; text-decoration: underline&quot;&gt;Customer&lt;/p&gt;&lt;p style=&quot;margin: 4px 0px 0px&quot;&gt;&lt;/p&gt;&lt;ul&gt;&lt;li&gt;Type (&lt;/li&gt;&lt;li&gt;Start_lat&lt;/li&gt;&lt;li&gt;Start_long&lt;/li&gt;&lt;/ul&gt;&lt;div&gt;The location of each bike station is&lt;br&gt;known&lt;br&gt;&lt;br&gt;Note: the start and the end station&lt;br&gt;&lt;span style=&quot;white-space: pre&quot;&gt;	&lt;/span&gt;can be the same&lt;br&gt;&lt;/div&gt;&lt;p&gt;&lt;/p&gt;&lt;p&gt;&lt;/p&gt;" style="verticalAlign=middle;align=left;overflow=fill;fontSize=12;fontFamily=Helvetica;html=1;rounded=1;fontStyle=1;strokeWidth=3;fillColor=#e1d5e7;arcSize=23;strokeColor=#9673a6;" vertex="1" parent="1">
          <mxGeometry x="450" y="310" width="220" height="174" as="geometry" />
        </mxCell>
      </root>
    </mxGraphModel>
  </diagram>
</mxfile>
